<svg width="128" height="128" viewBox="0 0 128 128" fill="none" xmlns="http://www.w3.org/2000/svg">
<rect width="128" height="128" rx="64" fill="white"/>
<path d="M28.1209 60.0276L25.9344 70.9374H24.023L25.4374 63.7814L20.7814 69.6913H19.8716L17.3792 63.6438L15.9266 70.9374H14L16.1789 60.0276H17.8303L20.7126 67.2906L26.3778 60.0276H28.1209Z" fill="#292929"/>
<path d="M36.5673 68.4145H31.0779L29.503 70.9374H27.3394L34.4266 60.0276H36.4449L39.1514 70.9374H37.1407L36.5673 68.4145ZM36.1927 66.8243L35.0841 62.023L32.0795 66.8243H36.1927ZM36.6131 57H38.9526L36.0015 59.133H34.2584L36.6131 57Z" fill="#292929"/>
<path d="M44.1273 71.0904C43.2806 71.0904 42.4721 70.9719 41.7037 70.7387C40.9392 70.4998 40.3371 70.192 39.8994 69.8136L40.7557 68.2234C41.2144 68.5903 41.7572 68.8809 42.3841 69.0949C43.0149 69.3052 43.6571 69.4084 44.3108 69.4084C45.1097 69.4084 45.7481 69.2708 46.2221 68.9955C46.6961 68.7203 46.9331 68.3438 46.9331 67.864C46.9331 67.5945 46.8356 67.3709 46.6426 67.1912C46.4476 67.0077 46.2087 66.8606 45.9239 66.7478C45.6372 66.6312 45.2397 66.5012 44.7313 66.3579C44.0222 66.1496 43.4488 65.9489 43.0111 65.7539C42.5772 65.5609 42.2045 65.2723 41.8948 64.89C41.5833 64.5039 41.4285 64.0031 41.4285 63.3915C41.4285 62.6843 41.6273 62.065 42.0248 61.5337C42.4262 61.0042 42.9843 60.5933 43.6991 60.3028C44.4178 60.0123 45.2454 59.867 46.1839 59.867C46.8872 59.867 47.5543 59.9492 48.187 60.1117C48.8234 60.276 49.372 60.5016 49.8307 60.7921L49.0356 62.3976C48.6266 62.1281 48.1678 61.9217 47.6594 61.7783C47.1491 61.6312 46.6197 61.5566 46.0692 61.5566C45.2588 61.5566 44.6166 61.7057 44.1426 62.0001C43.6724 62.2963 43.4392 62.6881 43.4392 63.1774C43.4392 63.4584 43.5348 63.6935 43.7297 63.8808C43.9285 64.0643 44.1674 64.2134 44.4484 64.3242C44.7274 64.4313 45.1384 64.567 45.6793 64.7294C46.3674 64.9282 46.9274 65.1232 47.3613 65.3105C47.799 65.4997 48.1717 65.7749 48.4775 66.1362C48.7871 66.4993 48.9438 66.9733 48.9438 67.5582C48.9438 68.273 48.7412 68.8942 48.3399 69.4237C47.9423 69.955 47.3765 70.364 46.6426 70.6546C45.9086 70.9451 45.0696 71.0904 44.1273 71.0904Z" fill="#292929"/>
<path d="M54.4119 61.7401H50.7957L51.1397 60.0276H60.3982L60.0389 61.7401H56.4226L54.5954 70.9374H52.5694L54.4119 61.7401Z" fill="#292929"/>
<path d="M63.5877 61.7248L63.0296 64.5612H68.3125L67.9837 66.2279H62.6855L62.0892 69.2402H68.2666L67.9226 70.9374H59.7421L61.921 60.0276H69.8874L69.5434 61.7248H63.5877Z" fill="#292929"/>
<path d="M80.7498 63.3151C80.7498 64.3663 80.4688 65.2531 79.9088 65.9756C79.3469 66.6943 78.5632 67.1951 77.5541 67.4741L79.5036 70.9374H77.3553L75.5586 67.7417H72.8445L72.2253 70.9374H70.184L72.3629 60.0276H76.606C77.9249 60.0276 78.9455 60.3162 79.6642 60.8915C80.3867 61.4687 80.7498 62.2753 80.7498 63.3151ZM75.6045 66.075C76.5927 66.075 77.3572 65.8571 77.8981 65.4175C78.4371 64.9741 78.7085 64.3357 78.7085 63.4985C78.7085 62.9175 78.5059 62.4798 78.1045 62.1835C77.707 61.8892 77.1336 61.7401 76.3843 61.7401H74.0601L73.1886 66.075H75.6045Z" fill="#292929"/>
<path d="M85.1471 71.0904C84.3003 71.0904 83.4918 70.9719 82.7235 70.7387C81.959 70.4998 81.3569 70.192 80.9192 69.8136L81.7755 68.2234C82.2342 68.5903 82.777 68.8809 83.4039 69.0949C84.0347 69.3052 84.6769 69.4084 85.3305 69.4084C86.1295 69.4084 86.7679 69.2708 87.2419 68.9955C87.7159 68.7203 87.9529 68.3438 87.9529 67.864C87.9529 67.5945 87.8554 67.3709 87.6624 67.1912C87.4674 67.0077 87.2285 66.8606 86.9437 66.7478C86.657 66.6312 86.2595 66.5012 85.751 66.3579C85.0419 66.1496 84.4685 65.9489 84.0308 65.7539C83.597 65.5609 83.2243 65.2723 82.9146 64.89C82.6031 64.5039 82.4483 64.0031 82.4483 63.3915C82.4483 62.6843 82.647 62.065 83.0446 61.5337C83.446 61.0042 84.0041 60.5933 84.7189 60.3028C85.4376 60.0123 86.2652 59.867 87.2037 59.867C87.907 59.867 88.5741 59.9492 89.2067 60.1117C89.8432 60.276 90.3918 60.5016 90.8505 60.7921L90.0554 62.3976C89.6463 62.1281 89.1876 61.9217 88.6792 61.7783C88.1689 61.6312 87.6394 61.5566 87.089 61.5566C86.2786 61.5566 85.6364 61.7057 85.1623 62.0001C84.6922 62.2963 84.459 62.6881 84.459 63.1774C84.459 63.4584 84.5545 63.6935 84.7495 63.8808C84.9483 64.0643 85.1872 64.2134 85.4682 64.3242C85.7472 64.4313 86.1582 64.567 86.6991 64.7294C87.3871 64.9282 87.9472 65.1232 88.381 65.3105C88.8187 65.4997 89.1914 65.7749 89.4973 66.1362C89.8069 66.4993 89.9636 66.9733 89.9636 67.5582C89.9636 68.273 89.761 68.8942 89.3596 69.4237C88.9621 69.955 88.3963 70.364 87.6624 70.6546C86.9284 70.9451 86.0893 71.0904 85.1471 71.0904Z" fill="#292929"/>
<path d="M96.8868 71.0904C95.3826 71.0904 94.2071 70.6679 93.3623 69.8212C92.5213 68.9764 92.1008 67.7627 92.1008 66.1821V60.0276H94.1345V66.1056C94.1345 68.2463 95.0558 69.3166 96.9021 69.3166C98.7408 69.3166 99.6621 68.2463 99.6621 66.1056V60.0276H101.657V66.1821C101.657 67.7627 101.239 68.9764 100.404 69.8212C99.5665 70.6679 98.3949 71.0904 96.8868 71.0904Z" fill="#0071DB"/>
<path d="M111.943 65.3564H113.862V69.7065C113.3 70.1557 112.647 70.4998 111.898 70.7387C111.148 70.9719 110.378 71.0904 109.589 71.0904C108.476 71.0904 107.475 70.8514 106.584 70.3717C105.691 69.8881 104.99 69.2211 104.482 68.3686C103.971 67.5123 103.717 66.549 103.717 65.4787C103.717 64.4083 103.971 63.4488 104.482 62.5964C104.99 61.7458 105.693 61.0788 106.592 60.5933C107.488 60.1097 108.497 59.867 109.619 59.867C110.537 59.867 111.37 60.0199 112.119 60.3257C112.869 60.6277 113.495 61.0673 114 61.6484L112.723 62.8946C111.892 62.065 110.89 61.6484 109.719 61.6484C108.948 61.6484 108.262 61.8089 107.662 62.13C107.066 62.4511 106.599 62.906 106.263 63.4909C105.927 64.0719 105.758 64.7352 105.758 65.4787C105.758 66.2088 105.927 66.8625 106.263 67.4435C106.599 68.0246 107.066 68.4833 107.662 68.8197C108.262 69.1523 108.943 69.3166 109.703 69.3166C110.554 69.3166 111.301 69.1312 111.943 68.7585V65.3564Z" fill="#0071DB"/>
</svg>
