<svg width="170" height="24" viewBox="0 0 170 24" fill="none" xmlns="http://www.w3.org/2000/svg">
<path d="M24.0056 5.14685L20.2884 23.6937H17.0392L19.4436 11.5284L11.5284 21.5751H9.98175L5.7447 11.2945L3.27526 23.6937H0L3.70416 5.14685H6.51153L11.4114 17.4941L21.0422 5.14685H24.0056Z" fill="#292929"/>
<path d="M38.3642 19.4046H29.0323L26.3549 23.6937H22.6768L34.725 5.14684H38.1563L42.7572 23.6937H39.339L38.3642 19.4046ZM37.7274 16.7012L35.8428 8.53907L30.7349 16.7012H37.7274ZM38.4422 0H42.4193L37.4024 3.62618H34.4391L38.4422 0Z" fill="#292929"/>
<path d="M51.2164 23.9536C49.777 23.9536 48.4026 23.7521 47.0964 23.3557C45.7967 22.9496 44.7731 22.4264 44.0291 21.7831L45.4847 19.0797C46.2645 19.7036 47.1873 20.1974 48.2531 20.5614C49.3254 20.9188 50.4171 21.0942 51.5284 21.0942C52.8866 21.0942 53.9718 20.8603 54.7776 20.3924C55.5834 19.9245 55.9864 19.2844 55.9864 18.4688C55.9864 18.0107 55.8206 17.6305 55.4925 17.3251C55.161 17.0132 54.7549 16.763 54.2707 16.5713C53.7834 16.3731 53.1075 16.1521 52.2432 15.9084C51.0377 15.5542 50.0629 15.2131 49.3189 14.8816C48.5813 14.5535 47.9477 14.0628 47.4213 13.413C46.8917 12.7566 46.6285 11.9053 46.6285 10.8655C46.6285 9.66332 46.9664 8.61056 47.6422 7.70726C48.3246 6.80721 49.2734 6.10862 50.4886 5.61473C51.7103 5.12085 53.1173 4.8739 54.7126 4.8739C55.9084 4.8739 57.0424 5.01362 58.1179 5.28981C59.1999 5.56924 60.1324 5.95266 60.9122 6.44655L59.5605 9.17593C58.8652 8.71778 58.0854 8.36686 57.2211 8.12317C56.3535 7.87297 55.4535 7.74625 54.5177 7.74625C53.14 7.74625 52.0482 7.9997 51.2424 8.50008C50.4431 9.00372 50.0467 9.66982 50.0467 10.5016C50.0467 10.9793 50.2092 11.3789 50.5406 11.6974C50.8785 12.0093 51.2847 12.2627 51.7623 12.4512C52.2367 12.6331 52.9353 12.8638 53.8548 13.14C55.0246 13.478 55.9766 13.8094 56.7142 14.1278C57.4583 14.4495 58.0919 14.9174 58.6118 15.5315C59.1381 16.1489 59.4046 16.9547 59.4046 17.9489C59.4046 19.1642 59.0602 20.2202 58.3778 21.1202C57.702 22.0235 56.7402 22.7189 55.4925 23.2128C54.2447 23.7066 52.8183 23.9536 51.2164 23.9536Z" fill="#292929"/>
<path d="M68.7001 8.05819H62.5525L63.1374 5.14685H78.8768L78.2659 8.05819H72.1183L69.012 23.6937H65.5678L68.7001 8.05819Z" fill="#292929"/>
<path d="M84.299 8.0322L83.3502 12.8541H92.3312L91.7723 15.6875H82.7653L81.7516 20.8083H92.2532L91.6683 23.6937H77.7615L81.4656 5.14685H95.0086L94.4237 8.0322H84.299Z" fill="#292929"/>
<path d="M113.475 10.7356C113.475 12.5227 112.997 14.0303 112.045 15.2586C111.09 16.4803 109.758 17.3316 108.042 17.806L111.356 23.6937H107.704L104.65 18.2609H100.036L98.983 23.6937H95.5128L99.217 5.14685H106.43C108.672 5.14685 110.407 5.63749 111.629 6.61552C112.857 7.5968 113.475 8.96799 113.475 10.7356ZM104.728 15.4275C106.408 15.4275 107.707 15.0571 108.627 14.3098C109.543 13.556 110.005 12.4707 110.005 11.0475C110.005 10.0597 109.66 9.31566 108.978 8.81202C108.302 8.31164 107.327 8.05819 106.053 8.05819H102.102L100.621 15.4275H104.728Z" fill="#292929"/>
<path d="M120.95 23.9536C119.511 23.9536 118.136 23.7521 116.83 23.3557C115.53 22.9496 114.507 22.4264 113.763 21.7831L115.218 19.0797C115.998 19.7036 116.921 20.1974 117.987 20.5614C119.059 20.9188 120.151 21.0942 121.262 21.0942C122.62 21.0942 123.705 20.8603 124.511 20.3924C125.317 19.9245 125.72 19.2844 125.72 18.4688C125.72 18.0107 125.554 17.6305 125.226 17.3251C124.895 17.0132 124.489 16.763 124.004 16.5713C123.517 16.3731 122.841 16.1521 121.977 15.9084C120.771 15.5542 119.797 15.2131 119.053 14.8816C118.315 14.5535 117.681 14.0628 117.155 13.413C116.625 12.7566 116.362 11.9053 116.362 10.8655C116.362 9.66332 116.7 8.61056 117.376 7.70726C118.058 6.80721 119.007 6.10862 120.222 5.61473C121.444 5.12085 122.851 4.8739 124.446 4.8739C125.642 4.8739 126.776 5.01362 127.852 5.28981C128.934 5.56924 129.866 5.95266 130.646 6.44655L129.294 9.17593C128.599 8.71778 127.819 8.36686 126.955 8.12317C126.087 7.87297 125.187 7.74625 124.251 7.74625C122.874 7.74625 121.782 7.9997 120.976 8.50008C120.177 9.00372 119.78 9.66982 119.78 10.5016C119.78 10.9793 119.943 11.3789 120.274 11.6974C120.612 12.0093 121.018 12.2627 121.496 12.4512C121.97 12.6331 122.669 12.8638 123.588 13.14C124.758 13.478 125.71 13.8094 126.448 14.1278C127.192 14.4495 127.826 14.9174 128.345 15.5315C128.872 16.1489 129.138 16.9547 129.138 17.9489C129.138 19.1642 128.794 20.2202 128.111 21.1202C127.436 22.0235 126.474 22.7189 125.226 23.2128C123.978 23.7066 122.552 23.9536 120.95 23.9536Z" fill="#292929"/>
<path d="M140.908 23.9536C138.35 23.9536 136.352 23.2355 134.916 21.7961C133.486 20.3599 132.771 18.2966 132.771 15.6095V5.14685H136.229V15.4795C136.229 19.1187 137.795 20.9383 140.934 20.9383C144.059 20.9383 145.626 19.1187 145.626 15.4795V5.14685H149.018V15.6095C149.018 18.2966 148.306 20.3599 146.886 21.7961C145.463 23.2355 143.471 23.9536 140.908 23.9536Z" fill="#0071DB"/>
<path d="M166.504 14.2058H169.766V21.6011C168.811 22.3647 167.7 22.9496 166.426 23.3557C165.152 23.7521 163.843 23.9536 162.501 23.9536C160.61 23.9536 158.907 23.5474 157.393 22.7319C155.876 21.9098 154.683 20.7758 153.819 19.3266C152.951 17.871 152.519 16.2333 152.519 14.4137C152.519 12.5942 152.951 10.963 153.819 9.51385C154.683 8.06793 155.879 6.93394 157.406 6.10862C158.93 5.28656 160.645 4.8739 162.553 4.8739C164.112 4.8739 165.529 5.13384 166.803 5.65373C168.077 6.16711 169.142 6.91444 170 7.90222L167.83 10.0207C166.416 8.61056 164.714 7.90222 162.722 7.90222C161.412 7.90222 160.246 8.17516 159.226 8.72103C158.212 9.26691 157.419 10.0402 156.847 11.0345C156.275 12.0223 155.989 13.1498 155.989 14.4137C155.989 15.655 156.275 16.7662 156.847 17.754C157.419 18.7418 158.212 19.5216 159.226 20.0935C160.246 20.6588 161.403 20.9383 162.696 20.9383C164.142 20.9383 165.412 20.6231 166.504 19.9895V14.2058Z" fill="#0071DB"/>
</svg>
